<?xml version="1.0" encoding="UTF-8"?>
<svg width="28px" height="35px" viewBox="0 0 28 35" version="1.1" xmlns="http://www.w3.org/2000/svg" xmlns:xlink="http://www.w3.org/1999/xlink">
    <title>pin</title>
    <g id="Page-1" stroke="none" stroke-width="1" fill="none" fill-rule="evenodd">
        <g id="Locations" transform="translate(-124.000000, -81.000000)" fill="#000000" fill-rule="nonzero">
            <g id="pin" transform="translate(124.000000, 81.000000)">
                <path d="M14.5,8 C10.9159153,8 8,10.9159153 8,14.5 C8,18.0840847 10.9159153,21 14.5,21 C18.0840847,21 21,18.0840847 21,14.5 C21,10.9159153 18.0841531,8 14.5,8 Z M14.5,18.2631795 C12.4249892,18.2631795 10.7368205,16.5750108 10.7368205,14.5 C10.7368205,12.4249892 12.4249892,10.7368205 14.5,10.7368205 C16.5750108,10.7368205 18.2631795,12.4249892 18.2631795,14.5 C18.2631795,16.5750108 16.5750108,18.2631795 14.5,18.2631795 Z" id="Shape"></path>
                <path d="M14,0 C6.2803598,0 0,6.29008789 0,14.0215332 L0,14.4091309 C0,18.3192871 2.23833459,22.8758496 6.65302879,27.9520117 C9.85334081,31.6319336 13.0089462,34.1978711 13.1416327,34.305332 L14,35 L14.8583673,34.3054004 C14.9911221,34.1979395 18.1467274,31.632002 21.3469712,27.9520801 C25.7615972,22.8758496 28,18.3193555 28,14.4091992 L28,14.0216016 C28,6.29008789 21.7196402,0 14,0 Z M25.2683226,14.4091992 C25.2683226,21.0171582 16.7671696,29.0162305 14,31.4444922 C11.2320796,29.0154785 2.73167735,21.0166797 2.73167735,14.4091992 L2.73167735,14.0216016 C2.73167735,7.79871094 7.78666602,2.73594727 14,2.73594727 C20.213334,2.73594727 25.2683226,7.79871094 25.2683226,14.0216016 L25.2683226,14.4091992 L25.2683226,14.4091992 Z" id="Shape"></path>
            </g>
        </g>
    </g>
</svg>