<?xml version="1.0" encoding="UTF-8"?>
<svg width="15px" height="14px" viewBox="0 0 15 14" version="1.1" xmlns="http://www.w3.org/2000/svg" xmlns:xlink="http://www.w3.org/1999/xlink">
    <title>home</title>
    <g id="Page-1" stroke="none" stroke-width="1" fill="none" fill-rule="evenodd">
        <g id="Locations" transform="translate(-1097.000000, -22.000000)" fill="#000000" fill-rule="nonzero">
            <g id="Group-13" transform="translate(1097.000000, 18.000000)">
                <g id="home" transform="translate(0.000000, 4.000000)">
                    <path d="M14.7480563,6.21993196 L8.01805977,0.198255216 C7.72266039,-0.0660946614 7.27720293,-0.0660658933 6.98192073,0.198226448 L0.251894946,6.21996073 C0.0152648967,6.43169379 -0.0628988982,6.75792381 0.0527061747,7.05104176 C0.168340545,7.34415972 0.449882549,7.53353998 0.770008407,7.53353998 L1.84490707,7.53353998 L1.84490707,13.5668103 C1.84490707,13.8060168 2.04242593,14 2.28602861,14 L5.9749027,14 C6.21850538,14 6.41602423,13.8060456 6.41602423,13.5668103 L6.41602423,9.90359817 L8.58404416,9.90359817 L8.58404416,13.566839 C8.58404416,13.8060456 8.78156301,14 9.02516569,14 L12.713864,14 C12.9574667,14 13.1549855,13.8060744 13.1549855,13.566839 L13.1549855,7.53353998 L14.2300893,7.53353998 C14.5501858,7.53353998 14.8317571,7.34413095 14.9473915,7.05104176 C15.0628501,6.75789504 14.9846863,6.43169379 14.7480563,6.21993196 Z" id="Path"></path>
                    <path d="M12.6111848,1 L10,1 L13,4 L13,1.42758151 C13,1.19144042 12.8259279,1 12.6111848,1 Z" id="Path"></path>
                </g>
            </g>
        </g>
    </g>
</svg>