<?xml version="1.0" encoding="UTF-8"?>
<svg width="43px" height="31px" viewBox="0 0 43 31" version="1.1" xmlns="http://www.w3.org/2000/svg" xmlns:xlink="http://www.w3.org/1999/xlink">
    <title>sensor</title>
    <g id="Page-1" stroke="none" stroke-width="1" fill="none" fill-rule="evenodd">
        <g id="Add-new-gateway" transform="translate(-117.000000, -82.000000)" fill="#000000" fill-rule="nonzero">
            <g id="sensor" transform="translate(138.500000, 97.500000) scale(1, -1) translate(-138.500000, -97.500000) translate(117.000000, 82.000000)">
                <path d="M37.0375073,0.367285104 C36.5714662,-0.122428368 35.8157111,-0.122428368 35.3495905,0.367285104 C34.8834698,0.856998577 34.8834698,1.65092293 35.3495905,2.1406364 C38.7437252,5.70648279 40.6129023,10.4509687 40.6129023,15.5 C40.6129023,20.549031 38.7437252,25.2935169 35.3495905,28.8593633 C34.8834698,29.3489932 34.8834698,30.1430012 35.3495905,30.6327146 C35.8165068,31.1232641 36.5721824,31.1215921 37.0375073,30.6327146 C40.8824852,26.5932055 43,21.2189805 43,15.5 C43,9.78101926 40.8824852,4.40679427 37.0375073,0.367285104 L37.0375073,0.367285104 Z" id="Path"></path>
                <path d="M33.1928067,4.36085124 C32.6911582,3.87971625 31.8777992,3.87971625 31.3762364,4.36085124 C30.8746735,4.84206837 30.8746735,5.62221844 31.3762364,6.10343557 C33.9909227,8.61146567 35.430957,11.9486054 35.430957,15.4999846 C35.430957,19.0513637 33.9910083,22.3884214 31.3762364,24.8965336 C30.8745879,25.3777507 30.8745879,26.1579008 31.3762364,26.6391179 C31.8777136,27.1201708 32.6909869,27.1204172 33.1928067,26.6391179 C36.2927853,23.6655608 38,19.7096077 38,15.4999024 C38,11.2901972 36.2926996,7.33432624 33.1928067,4.36085124 Z" id="Path"></path>
                <path d="M29.0346356,8.37171518 C28.569172,7.87609494 27.814482,7.87609494 27.3490978,8.37171518 C26.8836341,8.86742005 26.8837135,9.67114228 27.3490978,10.1667625 C28.8111209,11.7236041 29.6162666,13.7952748 29.6162666,15.9999683 C29.6162666,18.2046618 28.8111209,20.2763324 27.3490978,21.833174 C26.8836341,22.3287943 26.8836341,23.1325165 27.3490978,23.6282213 C27.814482,24.1238416 28.5690925,24.1240108 29.0346356,23.6282213 C30.9468666,21.5918373 32,18.8827231 32,15.9998836 C32,13.1170442 30.9468666,10.4080992 29.0346356,8.37171518 Z" id="Path"></path>
                <path d="M2.38709774,15.4999843 C2.38709774,10.450948 4.25627483,5.70645726 7.65040954,2.14060723 C8.11653015,1.65097686 8.11653015,0.856968102 7.65040954,0.367254131 C7.18436849,-0.122376244 6.42869291,-0.122459841 5.96249273,0.367254131 C2.11751483,4.40676742 0,9.78099789 0,15.4999843 C0,21.2189708 2.11751483,26.5932012 5.96249273,30.6327145 C6.42845421,31.1223449 7.18428892,31.1225121 7.65040954,30.6327145 C8.11653015,30.1430005 8.11653015,29.3490754 7.65040954,28.8593614 C4.25627483,25.2935114 2.38709774,20.5490206 2.38709774,15.4999843 Z" id="Path"></path>
                <path d="M7.56904303,15.4999589 C7.56904303,11.9485972 9.00899165,8.61155594 11.6237636,6.10345604 C12.1254121,5.62224127 12.1254121,4.84209504 11.6237636,4.36088027 C11.1222008,3.8796655 10.3088418,3.87974765 9.80719332,4.36088027 C6.70721473,7.33434065 5,11.2903565 5,15.4999589 C5,19.7095612 6.70721473,23.6655771 9.80719332,26.6391196 C10.3095269,27.1209094 11.1228003,27.1196772 11.6237636,26.6391196 C12.1253265,26.1579048 12.1253265,25.3777586 11.6237636,24.8965438 C9.00899165,22.3884439 7.56904303,19.0513205 7.56904303,15.4999589 Z" id="Path"></path>
                <path d="M15.65093,8.37177398 C15.185543,7.87607534 14.4308485,7.87607534 13.965382,8.37177398 C12.0531397,10.4081324 11,13.1172126 11,16.0000158 C11,18.882819 12.0531397,21.5918992 13.965382,23.6282576 C14.4314841,24.1245486 15.1860992,24.1232793 15.65093,23.6282576 C16.1163964,23.132559 16.116317,22.3288468 15.65093,21.8332328 C14.1888981,20.2764108 13.3837476,18.2047662 13.3837476,16.0001004 C13.3837476,13.7954346 14.1888981,11.72379 15.65093,10.166968 C16.116317,9.67118474 16.116317,8.86747261 15.65093,8.37177398 L15.65093,8.37177398 Z" id="Path"></path>
                <path d="M21.5,10 C18.4672547,10 16,12.4673418 16,15.5 C16,18.5326582 18.4673418,21 21.5,21 C24.5326582,21 27,18.5326582 27,15.5 C27,12.4673418 24.5327453,10 21.5,10 Z M21.5,18.3892405 C19.9068275,18.3892405 18.6107595,17.0930854 18.6107595,15.5 C18.6107595,13.9069146 19.9069146,12.6107595 21.5,12.6107595 C23.0930854,12.6107595 24.3892405,13.9069146 24.3892405,15.5 C24.3892405,17.0930854 23.0931725,18.3892405 21.5,18.3892405 Z" id="Shape"></path>
            </g>
        </g>
    </g>
</svg>