<?xml version="1.0" encoding="UTF-8"?>
<svg width="17px" height="17px" viewBox="0 0 17 17" version="1.1" xmlns="http://www.w3.org/2000/svg" xmlns:xlink="http://www.w3.org/1999/xlink">
    <title>clock</title>
    <g id="Page-1" stroke="none" stroke-width="1" fill="none" fill-rule="evenodd">
        <g id="Thing-view" transform="translate(-1092.000000, -161.000000)" fill="#000000" fill-rule="nonzero">
            <g id="Group-6" transform="translate(124.000000, 161.000000)">
                <g id="clock" transform="translate(968.000000, 0.000000)">
                    <path d="M8.5,0 C3.81302368,0 0,3.81302368 0,8.5 C0,13.1870067 3.81302368,17 8.5,17 C13.1870067,17 17,13.1869763 17,8.5 C17,3.81302368 13.1870067,0 8.5,0 Z M8.5,15.1420765 C4.83746205,15.1420765 1.8579235,12.1625379 1.8579235,8.5 C1.8579235,4.8376442 4.83746205,1.8579235 8.5,1.8579235 C12.1625379,1.8579235 15.1420765,4.8376442 15.1420765,8.5 C15.1420765,12.1625379 12.1625379,15.1420765 8.5,15.1420765 Z" id="Shape"></path>
                    <path d="M9.39747421,8.29184295 L9.39747421,4.72167069 C9.39747421,4.32303442 9.08467236,4 8.69881075,4 C8.3128313,4 8,4.32303442 8,4.72167069 L8,8.52239059 C8,8.53373847 8.00271028,8.54438662 8.00324055,8.5557345 C7.99404916,8.75196468 8.05950836,8.95120676 8.20462626,9.10110227 L10.8071741,11.7885734 C11.0801466,12.0704755 11.5225706,12.0704755 11.7953369,11.7885734 C12.0681326,11.5066713 12.0683094,11.0497744 11.7953369,10.7680548 L9.39747421,8.29184295 Z" id="Path"></path>
                </g>
            </g>
        </g>
    </g>
</svg>